<svg width="21" height="18" viewBox="0 0 21 18" fill="none" xmlns="http://www.w3.org/2000/svg">
<path d="M5.19141 0.268915C4.85157 0.327509 4.57032 0.507196 4.15625 0.925165C3.82032 1.26892 3.78125 1.3236 3.78125 1.45251C3.78125 1.64001 3.89063 1.74938 4.07813 1.74938C4.20703 1.74938 4.26172 1.71032 4.59766 1.3822C4.99219 0.999384 5.07813 0.936884 5.30469 0.886103C5.54297 0.831415 5.76172 0.913446 6.17578 1.21032L6.5625 1.48767L4.14844 3.90173C2.82032 5.22985 1.72266 6.30407 1.70703 6.28845C1.60547 6.17517 1.23828 5.65173 1.1875 5.55017C1.10157 5.3822 1.10938 5.05017 1.19922 4.85485C1.2461 4.75329 1.67578 4.29626 2.41016 3.56579C3.47266 2.5072 3.54688 2.42517 3.54688 2.29626C3.54688 2.08142 3.45703 1.98376 3.26172 1.98376C3.09766 1.98376 3.08985 1.98767 1.91797 3.16345C0.507816 4.58142 0.519534 4.56579 0.519534 5.20642C0.519534 5.60876 0.527347 5.65173 0.636722 5.85876C0.703128 5.97985 1.07813 6.51892 1.47657 7.05798C2.23828 8.08923 2.30469 8.15563 2.52344 8.0736C2.58203 8.05017 2.73047 7.93298 2.85547 7.81188L3.07813 7.58923L3.22266 7.73376L3.36719 7.87829L3.16407 8.08923C2.40235 8.89782 2.08985 10.0853 2.35938 11.1634C2.45313 11.5424 2.76563 12.1595 3.01953 12.4642C3.42969 12.9525 4.08203 13.3744 4.65235 13.5228C4.78125 13.5541 4.88672 13.5853 4.89063 13.5931C4.89453 13.6009 4.9375 13.7259 4.98438 13.8783C5.03125 14.0267 5.13672 14.265 5.21485 14.4017C5.41797 14.7416 5.88282 15.1713 6.23438 15.3431L6.51563 15.4799V16.0853C6.51563 16.6439 6.52344 16.7064 6.60938 16.8939C6.82032 17.3431 7.37891 17.5189 7.82813 17.2845C7.94922 17.222 8.23438 16.9213 8.23438 16.8588C8.23438 16.8431 8.31641 16.8275 8.42188 16.8275C8.59766 16.8275 8.61328 16.8353 8.74219 17.0111C8.9336 17.2689 9.15235 17.3822 9.46094 17.3822C9.80469 17.3861 10.1055 17.2142 10.25 16.933C10.3008 16.8392 10.3281 16.8275 10.5 16.8275C10.6719 16.8275 10.6992 16.8392 10.75 16.933C10.8945 17.2142 11.1953 17.3822 11.5391 17.3822C11.8477 17.3861 12.0664 17.2689 12.2578 17.0111C12.3867 16.8392 12.4023 16.8275 12.5781 16.8275C12.7305 16.8275 12.7695 16.8431 12.8086 16.9174C13.1367 17.5541 14.0898 17.5384 14.3906 16.8939C14.4844 16.6908 14.4844 16.6791 14.4844 15.4603V14.2259L14.7539 14.1595C15.0234 14.0892 15.3945 13.8939 15.5781 13.7259C15.6445 13.6634 15.7461 13.6283 15.8906 13.6088C16.2461 13.5697 16.5547 13.4759 16.9297 13.2884C17.3477 13.0853 17.4297 13.0072 17.4297 12.8197C17.4297 12.5424 17.1797 12.433 16.9063 12.5892C16.6758 12.722 16.4141 12.8431 16.2852 12.8822L16.1797 12.9095L16.2617 12.6049C16.3398 12.3002 16.3398 12.3002 16.5742 12.1478C17.4063 11.6088 17.7656 10.6049 17.4531 9.67517C17.3594 9.39782 17.0781 8.95251 16.9063 8.80798L16.7969 8.71423L16.9922 8.52282L17.1875 8.33142L17.4219 8.58532C17.7188 8.90563 17.9688 9.41345 18.0625 9.87438C18.1758 10.4486 18.0742 11.0814 17.7813 11.6244C17.625 11.9134 17.6094 12.1009 17.7344 12.2181C17.9414 12.4095 18.168 12.2806 18.3828 11.847C19.0039 10.5853 18.7891 9.10095 17.8359 8.08923L17.6328 7.87829L17.7773 7.73376L17.9219 7.58923L18.1445 7.81188C18.2695 7.93298 18.418 8.05017 18.4766 8.0736C18.6953 8.15563 18.7617 8.08923 19.5234 7.05798C19.9219 6.51892 20.3008 5.97595 20.3633 5.85485C20.4727 5.65173 20.4805 5.60876 20.4805 5.20642C20.4805 4.81188 20.4727 4.7611 20.3711 4.56188C20.207 4.24938 16.5625 0.593134 16.2422 0.425165C15.8477 0.214228 15.3438 0.194696 14.9453 0.374384C14.6992 0.483759 12.7578 1.92907 12.6953 2.04626C12.6133 2.1986 12.668 2.3197 12.9336 2.59704L13.1719 2.84704L12.1797 3.83923L11.1836 4.83532H10.5H9.81641L8.82032 3.83923L7.82813 2.84704L8.06641 2.59704C8.33203 2.3197 8.38672 2.1986 8.30469 2.04626C8.23047 1.90563 6.23047 0.44079 5.98828 0.34704C5.73438 0.25329 5.45313 0.225946 5.19141 0.268915ZM15.9297 0.97204C16.1367 1.07751 19.7422 4.70642 19.8164 4.8822C19.8945 5.0736 19.8906 5.39392 19.8125 5.55017C19.7617 5.65173 19.3945 6.17517 19.293 6.28845C19.2773 6.30407 18.1797 5.22985 16.8516 3.90173L14.4375 1.48767L14.8242 1.20642C15.3359 0.843134 15.5781 0.792353 15.9297 0.97204ZM7.47266 2.16345C7.54688 2.21813 7.42188 2.34704 5.00782 4.7611L2.46485 7.30407L2.28516 7.07751L2.10547 6.84704L4.58985 4.35876L7.07813 1.87048L7.23438 1.98767C7.32422 2.05017 7.42969 2.12829 7.47266 2.16345ZM18.7148 7.0736L18.5352 7.30407L16.0039 4.77282C14.6094 3.37829 13.4688 2.22985 13.4688 2.21813C13.4727 2.20642 13.5703 2.12438 13.6953 2.03454L13.918 1.87048L16.4063 4.35485L18.8945 6.83923L18.7148 7.0736ZM8.30469 4.22204L9.21094 5.12829L7.28516 7.05407L5.36328 8.97595L4.44532 8.05798L3.52735 7.14001L3.73047 6.93688L3.9375 6.73376L4.37891 7.16735C4.8711 7.65563 5.05078 7.7611 5.375 7.76501C5.875 7.76501 6.24219 7.40563 6.24219 6.90563C6.24219 6.5736 6.13672 6.39782 5.64844 5.90173L5.21094 5.46032L5.46094 5.20642L5.71485 4.95251L6.1836 5.42126C6.6875 5.92126 6.82422 6.0072 7.14063 6.0072C7.48047 6.0072 7.79297 5.81579 7.92578 5.51892C8.01563 5.32751 8.02344 4.96423 7.94141 4.76892C7.90625 4.69079 7.67969 4.42126 7.42578 4.16345L6.96875 3.70251L7.16016 3.5072C7.26563 3.39782 7.36328 3.31188 7.375 3.31188C7.38672 3.31188 7.80469 3.72204 8.30469 4.22204ZM13.8398 3.5072L14.0313 3.70251L13.5742 4.16345C13.3203 4.42126 13.0938 4.69079 13.0586 4.76892C12.9766 4.96423 12.9844 5.32751 13.0742 5.51892C13.207 5.81579 13.5195 6.0072 13.8594 6.0072C14.1758 6.0072 14.3125 5.92126 14.8164 5.42126L15.2852 4.95251L15.5391 5.20642L15.7891 5.46032L15.3555 5.89782C14.8555 6.40954 14.7578 6.5697 14.7578 6.89392C14.7617 7.40563 15.1172 7.76501 15.625 7.76501C15.9453 7.7611 16.1211 7.65563 16.6172 7.17126L17.0664 6.73376L17.2695 6.93688L17.4727 7.14001L16.5547 8.05798L15.6367 8.97595L13.7148 7.05407L11.7891 5.12829L12.6953 4.22204C13.1953 3.72204 13.6133 3.31188 13.625 3.31188C13.6367 3.31188 13.7344 3.39782 13.8398 3.5072ZM6.95703 4.59704C7.3086 4.9486 7.375 5.03845 7.375 5.14001C7.375 5.27282 7.26172 5.3822 7.1211 5.3822C7.07422 5.3822 6.8711 5.21032 6.60547 4.9447L6.16407 4.5072L6.32813 4.33923C6.41797 4.24548 6.50391 4.17126 6.51563 4.17126C6.52735 4.17126 6.72657 4.36267 6.95703 4.59704ZM14.6719 4.33923L14.8359 4.5072L14.3945 4.9447C14.1289 5.21032 13.9258 5.3822 13.8789 5.3822C13.7383 5.3822 13.625 5.27282 13.625 5.14001C13.625 5.03845 13.6914 4.9486 14.043 4.59704C14.2734 4.36267 14.4727 4.17126 14.4844 4.17126C14.4961 4.17126 14.582 4.24548 14.6719 4.33923ZM13.2422 7.47985L15.2656 9.50329L15.168 9.79626C15.1172 9.95642 15.0547 10.0853 15.0352 10.0775C15.0117 10.0736 14.1875 9.48767 13.2031 8.77673C12.2227 8.06188 11.3047 7.42517 11.1641 7.35876C10.9297 7.24548 10.8789 7.23767 10.4961 7.23767C10.0977 7.23767 10.0742 7.24157 9.78516 7.3861C9.50391 7.52673 9.3711 7.64392 7.83985 9.14392C6.9336 10.0306 6.1836 10.7572 6.16797 10.765C6.15235 10.7689 6.04688 10.4877 5.9375 10.14L5.73438 9.50329L7.75782 7.47985L9.77735 5.46032H10.5H11.2227L13.2422 7.47985ZM5.19922 6.35485C5.64844 6.80798 5.69532 6.90563 5.53907 7.06188C5.39453 7.20642 5.3125 7.16345 4.84766 6.70251L4.40625 6.26501L4.57032 6.09704C4.66016 6.00329 4.7461 5.92907 4.75782 5.92907C4.76953 5.92907 4.96875 6.12048 5.19922 6.35485ZM16.4297 6.09704L16.5938 6.26501L16.1523 6.70251C15.8867 6.96813 15.6836 7.14001 15.6367 7.14001C15.4961 7.14001 15.3828 7.03063 15.3828 6.89782C15.3828 6.79626 15.4492 6.70642 15.8008 6.35485C16.0313 6.12048 16.2305 5.92907 16.2422 5.92907C16.2539 5.92907 16.3398 6.00329 16.4297 6.09704ZM10.9531 7.95251C11.2852 8.12048 11.5547 8.54626 11.5547 8.89782C11.5547 9.30798 11.207 9.77282 10.8125 9.89001C10.5508 9.96813 10.4492 9.96813 10.1875 9.89001C9.78125 9.76892 9.44532 9.30798 9.44532 8.87438C9.44532 8.46813 9.80078 8.01501 10.2227 7.87829C10.3867 7.8236 10.7813 7.86657 10.9531 7.95251ZM4.02344 8.53454L4.20703 8.71423L4.10938 8.78845C3.94141 8.92517 3.65625 9.36267 3.5586 9.64392C3.28125 10.4486 3.48438 11.3041 4.08985 11.8783C4.33594 12.1088 4.77735 12.3744 4.91407 12.3744C4.94532 12.3744 4.95313 12.4056 4.9375 12.4603C4.92188 12.5111 4.90235 12.6361 4.88672 12.7377C4.86328 12.9174 4.85938 12.9252 4.76172 12.9017C4.57032 12.8549 4.17969 12.6478 3.94141 12.4681C3.15235 11.8783 2.7461 10.8275 2.9375 9.87438C3.02735 9.42517 3.28125 8.90954 3.56641 8.59313C3.6875 8.46032 3.80078 8.35095 3.8125 8.35095C3.82422 8.35095 3.92188 8.43298 4.02344 8.53454ZM13.0117 9.42517L13.7695 9.97204L13.6094 10.015C13.0898 10.1556 12.9023 10.3041 11.2813 11.9017L9.89453 13.265L9.8711 12.9095C9.82422 12.2689 9.60547 11.7884 9.15625 11.3353C8.72266 10.9056 8.28125 10.6908 7.63672 10.6049L7.29297 10.558L8.0586 9.8236C8.5 9.39392 8.82813 9.10876 8.83594 9.14001C8.84375 9.16735 8.8711 9.26892 8.89844 9.36657C9.01172 9.79626 9.3711 10.222 9.77735 10.4056C10.8125 10.8822 11.9766 10.2572 12.1523 9.1322C12.1758 8.98376 12.207 8.86267 12.2227 8.86657C12.2383 8.87438 12.5938 9.12438 13.0117 9.42517ZM5.36328 10.4095C5.50391 10.847 5.61719 11.2259 5.61719 11.2533C5.61719 11.2845 5.57813 11.3392 5.53516 11.3822C5.48828 11.4213 5.39844 11.5306 5.33594 11.6205C5.27344 11.7142 5.19532 11.7884 5.16016 11.7884C5.03125 11.7884 4.62891 11.5306 4.44532 11.3314C4.17969 11.0424 4.07813 10.765 4.07813 10.3431C4.07422 10.0502 4.08985 9.97985 4.19922 9.74938C4.26563 9.60876 4.39453 9.41735 4.48438 9.32751L4.64844 9.16345L4.87891 9.39001L5.10547 9.62048L5.36328 10.4095ZM16.5977 9.41345C17.0742 10.0189 17.0469 10.8002 16.5273 11.3627C16.4063 11.4916 16.2969 11.5814 16.2813 11.5658C16.2656 11.5502 16.2227 11.4447 16.1836 11.3392C16.0977 11.097 15.9961 10.9291 15.7852 10.6713L15.625 10.4681L15.7578 10.0463C15.8828 9.65563 15.9102 9.60485 16.1133 9.39782C16.3164 9.19079 16.3359 9.17907 16.4141 9.22985C16.4609 9.2611 16.543 9.34313 16.5977 9.41345ZM14.8047 10.722C15.1367 10.8783 15.3945 11.1361 15.5508 11.4681C15.6641 11.7025 15.6758 11.765 15.6758 12.0814C15.6719 12.5658 15.5703 12.8197 15.25 13.1361C14.7578 13.6283 14.1523 13.7455 13.5625 13.472C12.6367 13.0384 12.3672 11.9174 13.0039 11.1283C13.1563 10.933 13.3555 10.7963 13.6523 10.6713C13.8438 10.5892 13.9297 10.5775 14.2109 10.5853C14.4883 10.597 14.5859 10.6166 14.8047 10.722ZM7.97657 11.3197C8.75 11.5853 9.25 12.2924 9.25 13.1166C9.25 13.9642 8.66407 14.7142 7.82422 14.933C7.0625 15.1283 6.21485 14.7845 5.77735 14.097C5.56641 13.7689 5.49219 13.4603 5.50782 13.0189C5.51953 12.6634 5.53516 12.6009 5.66797 12.3236C5.92578 11.7806 6.44532 11.3588 7.00391 11.2455C7.27344 11.1908 7.69922 11.222 7.97657 11.3197ZM12.1406 12.7884C12.2266 13.0463 12.3984 13.3431 12.5625 13.515L12.6641 13.6244L11.5508 13.6205H10.4414L11.2227 12.8627L12.0039 12.1049L12.0313 12.3275C12.0469 12.4486 12.0977 12.6556 12.1406 12.7884ZM10.6563 15.2259V16.2025H10.5H10.3438V15.2259V14.2494H10.5H10.6563V15.2259ZM11.7891 15.4174C11.7891 16.4838 11.7813 16.5931 11.7188 16.6713C11.6328 16.7767 11.4648 16.7845 11.3594 16.6908C11.2852 16.6244 11.2813 16.5619 11.2813 15.433V14.2494H11.5352H11.7891V15.4174ZM12.6875 15.2259V16.2025H12.5508H12.4141V15.2259V14.2494H12.5508H12.6875V15.2259ZM13.8594 15.4174C13.8594 16.472 13.8516 16.5931 13.793 16.6634C13.6719 16.8041 13.5586 16.808 13.4297 16.6752L13.3125 16.5619V15.4056V14.2494H13.5859H13.8594V15.4174ZM9.64453 16.683C9.55078 16.7767 9.38672 16.7806 9.28907 16.6908C9.21485 16.6244 9.21094 16.5658 9.21094 15.7299V14.8431L9.45703 14.6088L9.69922 14.3705L9.71094 15.4916C9.71875 16.5502 9.71485 16.6127 9.64453 16.683ZM8.58594 15.7533V16.2025H8.44922H8.3125V15.8197V15.4369L8.44141 15.3705C8.50782 15.3392 8.57032 15.308 8.57813 15.308C8.58203 15.3041 8.58594 15.5072 8.58594 15.7533ZM7.6875 16.0892V16.5619L7.57032 16.6752C7.44141 16.808 7.32813 16.8041 7.21094 16.6634C7.15235 16.597 7.14063 16.5072 7.14063 16.1009V15.6166H7.41407H7.6875V16.0892Z" fill="#828282" stroke="#515050" stroke-width="0.1"/>
<path d="M13.7383 11.3118C13.1211 11.6321 13.125 12.5657 13.7422 12.8821C14.1172 13.0735 14.5117 13.0149 14.8008 12.7259C15.375 12.1517 14.9805 11.2024 14.1719 11.2024C14 11.2024 13.8945 11.2298 13.7383 11.3118ZM14.3672 11.9056C14.4102 11.9485 14.4453 12.0267 14.4453 12.0814C14.4453 12.2024 14.2852 12.3743 14.1719 12.3743C14.0625 12.3743 13.8984 12.2064 13.8984 12.097C13.8984 11.8743 14.207 11.7454 14.3672 11.9056Z" fill="#828282" stroke="#515050" stroke-width="0.1"/>
<path d="M7.02342 12.261C6.48045 12.4875 6.30077 13.2219 6.67967 13.6829C6.85545 13.8938 7.0742 13.9915 7.37498 13.9915C7.67967 13.9915 7.89452 13.8938 8.0703 13.679C8.39842 13.2805 8.30467 12.6282 7.87498 12.343C7.73827 12.2532 7.66405 12.2375 7.41795 12.2297C7.25389 12.2219 7.07811 12.2375 7.02342 12.261ZM7.5703 12.9211C7.71873 13.0696 7.62889 13.3196 7.40623 13.3743C7.3242 13.3899 7.27733 13.3743 7.20311 13.2961C7.01952 13.1165 7.12108 12.843 7.37498 12.843C7.44139 12.843 7.52733 12.8782 7.5703 12.9211Z" fill="#828282" stroke="#515050" stroke-width="0.1"/>
</svg>
