<svg width="17" height="16" viewBox="0 0 17 16" fill="none" xmlns="http://www.w3.org/2000/svg">
<path d="M7.41332 0.607848C7.38055 0.61599 7.27522 0.624131 7.17926 0.626166C6.82816 0.630237 5.86147 0.719792 5.1897 0.811383C5.10544 0.82156 4.95798 0.841913 4.86201 0.854125C4.71221 0.870408 4.42899 0.917221 3.97491 0.9966C3.91873 1.00678 3.74552 1.04138 3.5887 1.07394C3.43422 1.10651 3.23292 1.14722 3.14164 1.16553C2.76479 1.24288 1.95961 1.44845 1.53829 1.57464C1.41658 1.61127 1.2738 1.65402 1.2223 1.66623C1.17081 1.68048 1.10293 1.70083 1.0725 1.71101C1.04207 1.72118 0.889932 1.77003 0.733108 1.82092C0.578625 1.87383 0.435846 1.92675 0.417121 1.941C0.389033 1.96542 0.417121 2.02649 0.597351 2.34603C0.716724 2.55364 0.822053 2.72461 0.836097 2.72461C0.8478 2.72461 0.913338 2.70222 0.981217 2.67576C1.2621 2.56585 1.34636 2.53532 1.49148 2.49054C1.57574 2.46612 1.71852 2.41931 1.80747 2.38878C1.89875 2.36028 2.01812 2.32161 2.07664 2.30329C2.13516 2.28701 2.20304 2.26666 2.22878 2.25851C2.25453 2.24834 2.41838 2.20153 2.59158 2.15471C3.35932 1.94507 4.37516 1.73136 4.97905 1.65402C5.1148 1.63773 5.32546 1.60924 5.44718 1.59296C5.77019 1.55021 6.35769 1.49119 6.78135 1.46066C6.92881 1.45048 7.4929 1.43623 8.03359 1.43013C9.31159 1.41385 10.0746 1.45252 11.1115 1.58889C12.0899 1.71508 12.1368 1.72322 12.7968 1.85959C13.2579 1.95728 13.932 2.12011 14.0491 2.16692C14.0889 2.18117 14.1731 2.20356 14.2363 2.21577C14.3019 2.22798 14.4797 2.27887 14.6342 2.32975C14.7887 2.38064 14.9736 2.4417 15.0438 2.46408C15.2568 2.53125 15.4675 2.60656 15.6243 2.66965C15.7882 2.73479 15.8022 2.73275 15.8724 2.60859C15.8958 2.56585 15.9263 2.51293 15.9403 2.49054C16.048 2.3155 16.1931 2.04684 16.2048 1.99596L16.2188 1.93693L15.9169 1.83516C15.7531 1.77817 15.5752 1.72118 15.5237 1.70694C15.4722 1.69269 15.3668 1.66012 15.2896 1.6357C14.784 1.47694 13.6956 1.2042 13.0894 1.08412C12.5815 0.984387 11.9448 0.872443 11.7669 0.85209C11.671 0.841913 11.5235 0.823595 11.4392 0.811383C10.9617 0.746252 10.4421 0.693333 9.92952 0.658732C9.68609 0.642449 9.40053 0.62006 9.2952 0.607848C9.07518 0.583424 7.49993 0.583424 7.41332 0.607848Z" fill="#127384"/>
<path d="M5.50612 2.74921C5.13396 2.7716 4.84371 2.79806 4.65178 2.82655C4.61433 2.83266 4.509 2.8469 4.41772 2.85912C4.21642 2.88761 3.48614 3.00973 3.20058 3.06469C2.55222 3.18681 1.39828 3.50839 0.871632 3.71396C0.749919 3.76077 0.597776 3.81776 0.532238 3.83608C0.469041 3.85644 0.412865 3.8829 0.408184 3.89511C0.396481 3.92564 0.621183 4.16581 0.829501 4.34492C1.19464 4.65836 1.88747 5.05729 2.35092 5.21808C2.50072 5.271 2.53349 5.26286 2.53349 5.18145C2.53349 5.05118 2.66457 4.80898 2.80267 4.68279C2.95013 4.55049 3.23101 4.42633 3.47912 4.38359C4.00108 4.29607 4.50432 4.2574 5.01458 4.26758L5.37504 4.27368L5.40547 4.36527C5.43122 4.45279 5.48271 4.68889 5.56698 5.11835C5.62081 5.39719 5.73316 5.94063 5.7987 6.24797C5.86424 6.54716 5.88998 6.66929 5.92743 6.8891C5.94148 6.97255 5.97893 7.15166 6.00936 7.286C6.03979 7.42033 6.09596 7.69103 6.13575 7.88642C6.17554 8.08182 6.2481 8.44411 6.2996 8.69038C6.47515 9.53505 6.536 9.83018 6.56175 9.96248C6.59218 10.1212 6.62963 10.2963 6.71857 10.7156C6.75602 10.8886 6.8005 11.0941 6.81454 11.1735C6.82859 11.2509 6.8637 11.4218 6.88944 11.55C6.91753 11.6783 6.94796 11.8248 6.95732 11.8757C6.96668 11.9266 7.01116 12.1464 7.05797 12.3642C7.10244 12.582 7.17032 12.9036 7.20309 13.0766C7.2382 13.2496 7.29203 13.506 7.32246 13.6465C7.41375 14.0657 7.43013 14.139 7.53312 14.6743C7.601 15.0325 7.60802 15.061 7.62675 15.0468C7.63611 15.0366 7.70633 14.7008 7.75548 14.4301C7.78591 14.255 7.814 14.1085 7.85613 13.9212C7.94508 13.5243 8.04104 13.0705 8.07147 12.8934C8.10424 12.7143 8.20255 12.2319 8.3149 11.7129C8.34064 11.5948 8.37107 11.434 8.38512 11.3567C8.39682 11.2773 8.45534 10.9903 8.51385 10.7156C8.57237 10.4408 8.63557 10.1334 8.65429 10.0337C8.72919 9.63275 8.75728 9.50249 8.87431 8.96516C8.91176 8.79215 8.96092 8.55402 8.98198 8.43597C9.01709 8.24261 9.07795 7.94138 9.13647 7.67271C9.24414 7.16184 9.27456 7.0214 9.29797 6.8891C9.3284 6.71406 9.37521 6.48203 9.44075 6.1808C9.54374 5.7025 9.57651 5.54984 9.59991 5.42365C9.66077 5.098 9.70056 4.89853 9.71929 4.81305C9.73099 4.76217 9.75206 4.65633 9.76844 4.57898C9.78249 4.49961 9.80589 4.39987 9.82228 4.3551L9.84802 4.27368L10.2553 4.26758C10.9037 4.25943 11.6316 4.33271 11.9733 4.44058C12.1653 4.50164 12.3853 4.6258 12.4813 4.72756C12.5819 4.8334 12.6662 4.99623 12.6966 5.1387C12.7223 5.25879 12.7598 5.28932 12.823 5.24454C12.8347 5.2364 12.8815 5.21808 12.9283 5.20384C12.9751 5.18959 13.1015 5.13667 13.2092 5.08579C13.3169 5.03287 13.4526 4.96774 13.5111 4.94128C13.9957 4.71128 14.9062 3.97449 14.8172 3.8829C14.8032 3.86865 14.7821 3.85644 14.7704 3.85644C14.7587 3.85644 14.5995 3.80148 14.417 3.73431C13.984 3.57352 14.0191 3.58573 13.8037 3.5206C13.7007 3.49007 13.5111 3.43308 13.3824 3.39441C13.2537 3.35574 13.0758 3.30689 12.9845 3.2845C12.8955 3.26415 12.727 3.22344 12.61 3.19495C11.9195 3.02601 11.0418 2.8754 10.2342 2.78788C9.92058 2.75531 9.3284 2.72071 9.26754 2.73292C9.24414 2.73903 9.16923 2.8062 9.09902 2.88354C9.0288 2.96088 8.93049 3.06672 8.87899 3.11964C8.78069 3.21937 8.50917 3.50839 8.21425 3.82387C8.12062 3.9236 8.00359 4.04776 7.9521 4.09864C7.89826 4.14953 7.8257 4.2289 7.78825 4.27368C7.7508 4.31846 7.69931 4.37341 7.6759 4.3958C7.6127 4.45686 7.6127 4.4589 7.21947 4.03148C7.15862 3.96431 7.04627 3.84626 6.96902 3.76484C6.89178 3.68547 6.74432 3.52874 6.64133 3.41884C6.18023 2.92628 5.98361 2.72682 5.95084 2.72478C5.93212 2.72275 5.73082 2.73496 5.50612 2.74921Z" fill="#127384"/>
</svg>
