<svg width="22" height="18" viewBox="0 0 22 18" fill="none" xmlns="http://www.w3.org/2000/svg">
<path d="M15.3958 0.399248C18.6797 0.644476 19.9805 1.17758 20.7375 2.57431C21.2066 3.42728 21.3133 4.18429 21.3133 6.64723C21.3133 9.94182 20.8868 13.311 20.3004 14.6438C19.3088 16.8615 17.6135 17.3413 10.6618 17.3413C2.0362 17.3413 1.14059 16.7122 0.458216 10.3043C0.212986 7.90536 0.287621 4.2376 0.618147 3.26735C1.26853 1.30552 2.52666 0.687124 6.49296 0.388586C8.16691 0.260641 13.6899 0.271303 15.3958 0.399248ZM5.1602 1.29486C3.39029 1.56142 2.52666 2.03055 1.99356 3.02212C1.56707 3.82178 1.46045 4.60011 1.46045 6.94577C1.46045 10.0165 1.78031 12.5754 2.34541 14.1C2.6013 14.7717 3.28367 15.5714 3.84876 15.8593C4.90431 16.403 7.95366 16.6589 12.0906 16.563C17.155 16.435 18.2959 16.1045 19.1275 14.4519C19.9165 12.9059 20.4283 8.27853 20.1511 5.14388C20.0125 3.57655 19.8419 3.09676 19.1808 2.37173C18.1786 1.29486 16.3447 1.02831 10.2247 1.08162C7.29261 1.10295 6.04515 1.15626 5.1602 1.29486Z" fill="#127384"/>
<path d="M16.9098 1.74231C17.1017 1.7743 17.155 1.85959 17.155 2.12615C17.1337 3.04309 16.1848 15.8909 16.1208 15.9549C16.0995 15.9869 15.5984 16.0295 15.0226 16.0615L13.9671 16.1148L13.9244 15.8483C13.8285 15.3258 13.1994 13.3533 12.9862 12.9588C12.6663 12.3084 12.1652 12.1165 10.8644 12.1165C8.88126 12.1165 8.72133 12.2978 7.80439 15.5071C7.67644 15.9762 7.56982 16.1575 7.47386 16.1148C7.38857 16.0828 6.98341 16.0615 6.56758 16.0615C6.1411 16.0615 5.73594 16.0189 5.65065 15.9655C5.49071 15.8589 5.42674 15.1765 5.00026 9.13114C4.58444 3.27765 4.48848 1.82761 4.52046 1.79562C4.53113 1.7743 4.88297 1.73165 5.28813 1.69966L6.02382 1.63569L6.37567 3.27765C7.01539 6.23105 7.67644 8.73664 7.98564 9.34438C8.59338 10.5492 9.36105 10.901 11.1736 10.8158C13.4873 10.6985 13.7218 10.2933 15.1292 3.96003L15.6197 1.72099L16.1528 1.71033C16.4407 1.69966 16.7819 1.71033 16.9098 1.74231Z" fill="#127384"/>
</svg>
