<svg width="23" height="15" viewBox="0 0 23 15" fill="none" xmlns="http://www.w3.org/2000/svg">
<path d="M9.45173 0.876622C5.03066 1.4176 1.59826 3.50688 0.637565 6.23974C0.311114 7.16313 0.311114 8.48759 0.637565 9.41097C1.53297 11.9573 4.48035 13.916 8.51901 14.6528C9.77818 14.8767 12.7815 14.8767 14.0687 14.6435C17.9768 13.9346 20.9241 12.0599 21.9221 9.64415C22.2859 8.74875 22.3419 7.30304 22.0341 6.36099C21.204 3.7867 18.182 1.72539 14.1619 1.01653C13.1639 0.839314 10.4404 0.755369 9.45173 0.876622ZM9.58231 1.9679C9.40509 2.20108 9.15326 2.59282 9.04134 2.826C8.77085 3.35765 8.36978 4.59816 8.28584 5.18577C8.21122 5.70809 8.19256 5.70809 7.22254 5.44693C6.09395 5.12981 5.26384 4.62614 4.78815 3.95459L4.60161 3.6841L5.13326 3.30168C5.73019 2.87263 6.89609 2.29435 7.66092 2.04252C8.06198 1.91194 9.58231 1.5575 9.84347 1.53885C9.89011 1.52952 9.76885 1.72539 9.58231 1.9679ZM14.2366 1.91194C14.6376 2.01454 15.3372 2.25704 15.7849 2.45291C16.6336 2.81667 17.9394 3.61881 17.9394 3.77737C17.9394 3.83333 17.7436 4.07584 17.5011 4.337C16.9321 4.95259 16.0367 5.37231 14.6563 5.67078C14.4138 5.72675 14.4045 5.70809 14.3019 5.1951C14.0593 3.9266 13.4251 2.43426 12.8655 1.81867L12.6696 1.60414L13.0893 1.66943C13.3225 1.70674 13.8355 1.81867 14.2366 1.91194ZM11.8861 3.22707C12.3618 3.48823 12.8375 4.19709 13.136 5.06452C13.2665 5.44693 13.3691 5.77338 13.3691 5.79204C13.3691 5.81069 12.4457 5.82002 11.3078 5.82002C9.69424 5.82002 9.25586 5.79204 9.28384 5.69876C9.31182 5.6428 9.42375 5.30702 9.53568 4.97125C9.78751 4.20642 10.2632 3.51621 10.7296 3.23639C11.1679 2.96591 11.4291 2.96591 11.8861 3.22707ZM5.07729 6.18378C5.85145 6.54754 7.43706 7.03255 7.84746 7.03255C8.05266 7.03255 8.05266 7.0512 8.05266 8.14248C8.05266 10.3157 8.59363 12.3304 9.51702 13.5802L9.86213 14.0559L9.39577 13.9906C7.59563 13.7388 5.58096 12.834 4.34045 11.7334C3.62226 11.0899 2.88541 9.99859 2.6429 9.2151C2.26982 8.00257 2.43771 6.56619 3.08128 5.47491L3.31446 5.08317L3.79947 5.44693C4.06996 5.65213 4.63892 5.97858 5.07729 6.18378ZM19.3945 5.49357C20.2153 6.90197 20.1966 8.78605 19.3385 10.2691C18.2939 12.0785 15.8222 13.5522 13.0986 13.9813L12.6883 14.0466L13.0334 13.5802C13.9474 12.3304 14.4884 10.3157 14.4884 8.16114V7.07918L15.5051 6.83668C16.643 6.55686 18.0327 5.93194 18.6856 5.41895C18.9188 5.23241 19.1147 5.08317 19.124 5.08317C19.1333 5.07384 19.2546 5.26039 19.3945 5.49357ZM13.5557 8.0119C13.5557 9.24309 13.3598 10.2318 12.9401 11.1272C12.1286 12.862 10.9534 13.0859 10.0207 11.6868C9.33048 10.6608 9.03201 9.3177 9.06932 7.42429L9.07864 7.03255H11.3172H13.5557V8.0119Z" fill="#127384"/>
</svg>
