<svg width="16" height="17" viewBox="0 0 16 17" fill="none" xmlns="http://www.w3.org/2000/svg">
<path d="M4.66666 12.3195C4.66666 12.3195 2.66666 6.98617 2.66666 4.3195C2.66666 1.65283 3.99999 1.65283 3.99999 1.65283H4.66666C4.66666 1.65283 5.33332 1.65283 5.33332 2.3195C5.33332 2.98617 4.66666 2.98617 4.66666 4.3195C4.66666 5.65283 6.66666 6.98617 6.66666 8.98617C6.66666 10.9862 4.66666 12.3195 4.66666 12.3195ZM7.99999 11.6528C7.33332 11.6528 5.33332 13.3195 5.33332 13.3195C5.13332 13.4528 5.19999 13.6528 5.33332 13.8528C5.33332 13.8528 5.99999 15.0528 7.33332 15.0528H11.3333C12.0667 15.0528 12.6667 14.4528 12.6667 13.7195V13.0528C12.6667 12.3195 12.0667 11.7195 11.3333 11.7195H7.99999V11.6528Z" fill="#828282"/>
</svg>
