<svg width="12" height="13" viewBox="0 0 12 13" fill="none" xmlns="http://www.w3.org/2000/svg">
<path d="M6 0.254639C6.42385 0.254503 6.83345 0.40771 7.15317 0.685976C7.47289 0.964242 7.68115 1.34878 7.7395 1.7686C7.79785 2.18842 7.70236 2.61517 7.47064 2.97008C7.23893 3.325 6.88664 3.5841 6.47881 3.69956V6.16003C6.47881 6.28702 6.42837 6.40881 6.33857 6.49861C6.24878 6.5884 6.12699 6.63885 6 6.63885C5.87301 6.63885 5.75122 6.5884 5.66142 6.49861C5.57163 6.40881 5.52118 6.28702 5.52118 6.16003V3.69956C5.11426 3.58321 4.76305 3.32384 4.53214 2.96916C4.30123 2.61447 4.20616 2.18834 4.26443 1.76914C4.32269 1.34995 4.53037 0.965893 4.84925 0.687627C5.16813 0.409361 5.57678 0.255603 6 0.254639ZM6.79803 2.0103C6.79803 1.79865 6.71395 1.59567 6.56429 1.44601C6.41463 1.29635 6.21165 1.21227 6 1.21227C5.78835 1.21227 5.58537 1.29635 5.43571 1.44601C5.28605 1.59567 5.20197 1.79865 5.20197 2.0103C5.20197 2.22195 5.28605 2.42493 5.43571 2.57459C5.58537 2.72425 5.78835 2.80832 6 2.80832C6.21165 2.80832 6.41463 2.72425 6.56429 2.57459C6.71395 2.42493 6.79803 2.22195 6.79803 2.0103ZM11.7458 3.12753C11.7458 2.70423 11.5776 2.29827 11.2783 1.99895C10.979 1.69964 10.573 1.53148 10.1497 1.53148C9.72644 1.53148 9.32047 1.69964 9.02116 1.99895C8.72184 2.29827 8.55368 2.70423 8.55368 3.12753V5.36201H7.11724V6.31964H9.51131V3.12753C9.51131 2.95821 9.57858 2.79583 9.6983 2.6761C9.81803 2.55637 9.98042 2.48911 10.1497 2.48911C10.3191 2.48911 10.4814 2.55637 10.6012 2.6761C10.7209 2.79583 10.7882 2.95821 10.7882 3.12753V10.7886C10.7882 10.9579 10.7209 11.1203 10.6012 11.24C10.4814 11.3597 10.3191 11.427 10.1497 11.427C9.98042 11.427 9.81803 11.3597 9.6983 11.24C9.57858 11.1203 9.51131 10.9579 9.51131 10.7886V7.59648H6.63842V10.7886C6.63842 10.9579 6.57116 11.1203 6.45143 11.24C6.3317 11.3597 6.16932 11.427 6 11.427C5.83068 11.427 5.66829 11.3597 5.54857 11.24C5.42884 11.1203 5.36158 10.9579 5.36158 10.7886V7.59648H1.53105C1.44639 7.59648 1.3652 7.56285 1.30533 7.50299C1.24547 7.44312 1.21184 7.36193 1.21184 7.27727V3.12753C1.21184 2.95821 1.2791 2.79583 1.39883 2.6761C1.51856 2.55637 1.68094 2.48911 1.85026 2.48911C2.01958 2.48911 2.18197 2.55637 2.30169 2.6761C2.42142 2.79583 2.48868 2.95821 2.48868 3.12753V6.31964H4.88276V5.36201H3.44631V3.12753C3.44631 2.70423 3.27816 2.29827 2.97884 1.99895C2.67952 1.69964 2.27356 1.53148 1.85026 1.53148C1.42696 1.53148 1.021 1.69964 0.721682 1.99895C0.422363 2.29827 0.254209 2.70423 0.254209 3.12753V7.27727C0.254209 7.61591 0.388733 7.94068 0.628187 8.18013C0.867641 8.41959 1.19241 8.55411 1.53105 8.55411H4.40395V10.7886C4.40395 11.2119 4.5721 11.6178 4.87142 11.9172C5.17074 12.2165 5.5767 12.3846 6 12.3846C6.4233 12.3846 6.82926 12.2165 7.12858 11.9172C7.4279 11.6178 7.59605 11.2119 7.59605 10.7886V8.55411H8.55368V10.7886C8.55368 11.2119 8.72184 11.6178 9.02116 11.9172C9.32047 12.2165 9.72644 12.3846 10.1497 12.3846C10.573 12.3846 10.979 12.2165 11.2783 11.9172C11.5776 11.6178 11.7458 11.2119 11.7458 10.7886V3.12753Z" fill="#828282"/>
</svg>
