<svg width="25" height="9" viewBox="0 0 25 9" fill="none" xmlns="http://www.w3.org/2000/svg">
<path d="M20.6613 0.667729C19.6693 0.667729 18.7593 1.01573 18.0453 1.59573C17.3063 0.994145 16.3822 0.666322 15.4293 0.667729C14.4373 0.667729 13.5273 1.01573 12.8133 1.59573C12.0743 0.994145 11.1502 0.666322 10.1973 0.667729C9.2053 0.667729 8.2953 1.01573 7.5813 1.59573C6.9721 1.10136 6.23529 0.78971 5.45624 0.69689C4.67719 0.604069 3.88779 0.733875 3.17948 1.07127C2.47117 1.40866 1.87296 1.93984 1.45413 2.60325C1.03531 3.26667 0.813019 4.03517 0.813019 4.81973C0.813019 5.60429 1.03531 6.37279 1.45413 7.03621C1.87296 7.69962 2.47117 8.23079 3.17948 8.56819C3.88779 8.90558 4.67719 9.03539 5.45624 8.94257C6.23529 8.84975 6.9721 8.5381 7.5813 8.04373C8.2953 8.62373 9.2053 8.97173 10.1973 8.97173C11.1893 8.97173 12.0993 8.62373 12.8133 8.04373C13.5273 8.62373 14.4373 8.97173 15.4293 8.97173C16.4213 8.97173 17.3313 8.62373 18.0453 8.04373C18.5614 8.46252 19.1704 8.7513 19.8213 8.88581C20.4721 9.02031 21.1458 8.99661 21.7856 8.8167C22.4254 8.63678 23.0126 8.30591 23.498 7.85189C23.9833 7.39787 24.3526 6.83397 24.5748 6.20759C24.7969 5.58121 24.8655 4.91065 24.7746 4.25228C24.6838 3.59391 24.4362 2.96696 24.0528 2.42413C23.6693 1.8813 23.1611 1.43846 22.571 1.13282C21.9808 0.827183 21.3259 0.667684 20.6613 0.667729ZM18.0453 6.68573C17.6556 6.14162 17.4465 5.48898 17.4473 4.81973C17.4473 4.12373 17.6693 3.47973 18.0453 2.95373C18.4213 3.47973 18.6433 4.12373 18.6433 4.81973C18.6433 5.51573 18.4213 6.15973 18.0453 6.68573ZM12.8133 6.68573C12.4236 6.14162 12.2145 5.48898 12.2153 4.81973C12.2153 4.12373 12.4373 3.47973 12.8133 2.95373C13.1893 3.47973 13.4113 4.12373 13.4113 4.81973C13.4113 5.51573 13.1893 6.15973 12.8133 6.68573ZM7.5813 6.68573C7.19163 6.14162 6.98247 5.48898 6.9833 4.81973C6.9833 4.12373 7.2053 3.47973 7.5813 2.95373C7.9573 3.47973 8.1793 4.12373 8.1793 4.81973C8.1793 5.51573 7.9573 6.15973 7.5813 6.68573ZM1.7513 4.81973C1.75154 4.22002 1.91956 3.63233 2.23637 3.12313C2.55318 2.61393 3.00615 2.20352 3.54404 1.93832C4.08193 1.67312 4.68329 1.56371 5.28012 1.62245C5.87695 1.68119 6.44544 1.90575 6.9213 2.27073C6.35273 2.99867 6.04434 3.89606 6.0453 4.81973C6.0453 5.78073 6.3733 6.66573 6.9213 7.36873C6.44544 7.73371 5.87695 7.95826 5.28012 8.01701C4.68329 8.07575 4.08193 7.96634 3.54404 7.70114C3.00615 7.43594 2.55318 7.02553 2.23637 6.51633C1.91956 6.00713 1.75154 5.41944 1.7513 4.81973ZM8.2413 7.36873C8.80987 6.64079 9.11827 5.7434 9.1173 4.81973C9.1173 3.85873 8.7893 2.97373 8.2413 2.27073C8.80195 1.8391 9.48975 1.60527 10.1973 1.60573C10.9333 1.60573 11.6113 1.85373 12.1533 2.27073C11.5845 2.99852 11.276 3.89601 11.2773 4.81973C11.2773 5.78073 11.6053 6.66573 12.1533 7.36873C11.5926 7.80035 10.9049 8.03419 10.1973 8.03373C9.48966 8.03472 8.8017 7.80083 8.2413 7.36873ZM13.4733 7.36873C14.0421 6.64093 14.3506 5.74345 14.3493 4.81973C14.3493 3.85873 14.0213 2.97373 13.4733 2.26973C14.0153 1.85373 14.6933 1.60473 15.4293 1.60473C16.1653 1.60473 16.8433 1.85273 17.3853 2.26973C16.8165 2.99752 16.508 3.89501 16.5093 4.81873C16.5093 5.77973 16.8373 6.66473 17.3853 7.36773C16.8246 7.79936 16.1369 8.03319 15.4293 8.03273C14.7217 8.03446 14.0336 7.80087 13.4733 7.36873ZM20.6613 8.03373C19.9537 8.03472 19.2657 7.80083 18.7053 7.36873C19.2737 6.64071 19.5821 5.74337 19.5813 4.81973C19.5813 3.85873 19.2533 2.97373 18.7053 2.27073C19.1105 1.95955 19.584 1.74944 20.0866 1.65783C20.5892 1.56621 21.1064 1.59574 21.5953 1.74394C22.0842 1.89215 22.5308 2.15478 22.8979 2.51004C23.2651 2.8653 23.5422 3.30297 23.7064 3.78675C23.8706 4.27053 23.9171 4.78649 23.8421 5.29183C23.767 5.79718 23.5726 6.27735 23.2749 6.69254C22.9772 7.10773 22.5848 7.44597 22.1303 7.67921C21.6758 7.91246 21.1722 8.03399 20.6613 8.03373Z" fill="#127384"/>
</svg>
