<svg width="23" height="24" viewBox="0 0 23 24" fill="none" xmlns="http://www.w3.org/2000/svg">
<path d="M10.0665 4.10765C8.1634 4.4108 6.69822 5.21076 5.72142 6.50753C4.26465 8.4527 3.84362 12.1746 4.76989 15.0545C5.11514 16.1407 5.53617 16.8228 6.33613 17.6228C7.11083 18.3975 7.69185 18.768 8.66864 19.1048C9.82227 19.5006 10.7822 19.6269 12.2306 19.5763C13.7547 19.5258 14.6052 19.3321 15.683 18.8016C17.704 17.8164 18.7987 16.2334 19.2281 13.6987C19.4386 12.4272 19.3628 10.0947 19.0681 8.99162C18.9502 8.55374 18.765 7.97272 18.6471 7.71168C17.8555 5.92651 16.3146 4.70552 14.2347 4.22554C13.561 4.07397 10.8075 3.98977 10.0665 4.10765ZM11.178 4.72236C11.178 4.7813 10.6896 6.36438 10.1001 8.24218L9.01389 11.6441L8.60128 14.8608C8.3655 16.7639 8.15498 18.0859 8.10446 18.0859C7.89394 18.0859 7.02662 17.2775 6.63927 16.7386C6.10035 15.9639 5.76353 15.1387 5.53617 14.044C5.37618 13.2609 5.35934 12.9662 5.39302 11.5178C5.4267 10.0947 5.46038 9.76631 5.64564 9.04214C5.9572 7.88009 6.36981 7.08013 7.05188 6.35596C7.92763 5.42127 9.03073 4.86551 10.3275 4.6971C11.0601 4.60447 11.178 4.60447 11.178 4.72236ZM12.1885 7.4338V10.2547H11.8516H11.5148V7.4338V4.61289H11.8516H12.1885V7.4338ZM14.0326 4.83183C15.1104 5.07603 16.1293 5.70757 16.8366 6.58332C17.8387 7.82957 18.3355 9.58948 18.3355 11.8967C18.3355 14.204 17.7545 16.006 16.6261 17.2186C16.163 17.707 15.5904 18.1533 15.5146 18.0691C15.4978 18.0522 15.2873 16.5449 15.0599 14.7176L14.6304 11.3915L13.5358 8.03166C12.9379 6.18755 12.4411 4.66341 12.4411 4.63815C12.4411 4.57921 13.4516 4.70552 14.0326 4.83183ZM13.7631 14.6755C14.5631 16.5702 15.203 18.1701 15.1862 18.2206C15.102 18.4396 13.46 18.869 12.3148 18.9701C11.3043 19.0627 9.4265 18.7427 8.70232 18.3554L8.42444 18.2122L9.79701 14.9703C11.6074 10.6842 11.3464 11.1641 11.8685 11.1978L12.2979 11.2231L13.7631 14.6755Z" fill="#127384"/>
</svg>
