<svg width="15" height="14" viewBox="0 0 15 14" fill="none" xmlns="http://www.w3.org/2000/svg">
<path d="M6.80322 1.75222C5.68637 1.87886 4.62707 2.31487 3.74468 3.01113L4.50839 3.77576C4.63147 3.90785 4.69848 4.08256 4.69529 4.26308C4.69211 4.4436 4.61898 4.61584 4.49131 4.74351C4.36364 4.87118 4.19141 4.94431 4.01089 4.94749C3.83036 4.95068 3.65565 4.88367 3.52356 4.76058L2.75614 3.99409C2.10391 4.8122 1.67954 5.78818 1.52604 6.82314H3.08689C3.2717 6.82314 3.44894 6.89656 3.57961 7.02723C3.71029 7.15791 3.7837 7.33515 3.7837 7.51995C3.7837 7.70476 3.71029 7.88199 3.57961 8.01267C3.44894 8.14335 3.2717 8.21676 3.08689 8.21676H1.48423C1.62888 9.70784 2.31037 11.0956 3.40185 12.1217C3.5335 12.2488 3.60983 12.4227 3.61435 12.6057C3.61887 12.7886 3.55122 12.966 3.42601 13.0995C3.30081 13.233 3.1281 13.3119 2.94522 13.3191C2.76233 13.3264 2.58395 13.2613 2.44862 13.1381C1.01783 11.7974 0.0673828 9.82036 0.0673828 7.69926C0.0673828 3.61874 3.39999 0.31958 7.50003 0.31958C11.6001 0.31958 14.9327 3.61781 14.9327 7.69926C14.9308 8.71761 14.7218 9.72494 14.3184 10.6599C13.9149 11.595 13.3254 12.4381 12.5858 13.1381C12.4505 13.2613 12.2721 13.3264 12.0892 13.3191C11.9063 13.3119 11.7336 13.233 11.6084 13.0995C11.4832 12.966 11.4156 12.7886 11.4201 12.6057C11.4246 12.4227 11.5009 12.2488 11.6326 12.1217C12.7165 11.0939 13.3867 9.70484 13.5167 8.21676H11.9132C11.7284 8.21676 11.5511 8.14335 11.4204 8.01267C11.2898 7.88199 11.2163 7.70476 11.2163 7.51995C11.2163 7.33515 11.2898 7.15791 11.4204 7.02723C11.5511 6.89656 11.7284 6.82314 11.9132 6.82314H13.474C13.0801 4.1604 10.9163 2.06161 8.19684 1.75222V2.87455C8.19684 3.05936 8.12342 3.23659 7.99274 3.36727C7.86207 3.49795 7.68483 3.57136 7.50003 3.57136C7.31522 3.57136 7.13798 3.49795 7.00731 3.36727C6.87663 3.23659 6.80322 3.05936 6.80322 2.87455V1.75222ZM10.7044 3.85659C10.7889 3.78954 10.894 3.75394 11.0018 3.75589C11.1096 3.75785 11.2133 3.79724 11.2953 3.86732C11.3772 3.93739 11.4322 4.03379 11.4509 4.13998C11.4695 4.24616 11.4507 4.35554 11.3975 4.44934L11.2953 4.63144C10.9217 5.29119 10.5457 5.9496 10.1674 6.60667C9.86497 7.13247 9.55836 7.65587 9.24762 8.17681C9.13118 8.3728 9.01224 8.5673 8.89086 8.76027C8.79795 8.90614 8.7069 9.04457 8.64001 9.12262C8.40001 9.40377 8.05815 9.57806 7.68964 9.60716C7.32113 9.63626 6.95615 9.51777 6.675 9.27777C6.39385 9.03777 6.21956 8.69591 6.19046 8.3274C6.16136 7.95889 6.27984 7.59392 6.51985 7.31277C6.58674 7.23473 6.70845 7.12231 6.83852 7.00803C6.97788 6.88446 7.15719 6.73302 7.3588 6.563C7.76388 6.22481 8.27116 5.81044 8.76543 5.41094C9.35498 4.93404 9.9465 4.45958 10.54 3.98759L10.7044 3.85752V3.85659Z" fill="#828282"/>
</svg>
