<svg width="14" height="13" viewBox="0 0 14 13" fill="none" xmlns="http://www.w3.org/2000/svg">
<path d="M6.99995 0.119629C3.57569 0.119629 0.799952 2.89537 0.799952 6.31963C0.799952 9.74389 3.57569 12.5196 6.99995 12.5196C10.4242 12.5196 13.2 9.74389 13.2 6.31963C13.2 2.89537 10.4242 0.119629 6.99995 0.119629ZM9.47995 6.93963L11.9215 6.94025C11.7834 8.03282 11.2857 9.04841 10.507 9.82707C9.7282 10.6057 8.71254 11.1032 7.61995 11.2412V8.79963C8.11325 8.79963 8.58635 8.60367 8.93517 8.25485C9.28399 7.90603 9.47995 7.43293 9.47995 6.93963ZM2.07839 6.94025L4.51995 6.93963C4.51995 7.43293 4.71591 7.90603 5.06473 8.25485C5.41355 8.60367 5.88665 8.79963 6.37995 8.79963L6.37933 11.2412C5.28685 11.1031 4.27133 10.6055 3.49269 9.82689C2.71404 9.04825 2.21649 8.03273 2.07839 6.94025ZM6.99995 1.35963C8.20809 1.35965 9.37469 1.80056 10.2808 2.59963C11.187 3.3987 11.7704 4.50098 11.9215 5.69963H9.47995C9.47995 5.53519 9.41463 5.3775 9.29836 5.26122C9.18208 5.14495 9.02439 5.07963 8.85995 5.07963H5.13995C4.97552 5.07963 4.81782 5.14495 4.70154 5.26122C4.58527 5.3775 4.51995 5.53519 4.51995 5.69963H2.07839C2.22954 4.50098 2.81293 3.3987 3.71907 2.59963C4.62521 1.80056 5.79181 1.35965 6.99995 1.35963Z" fill="#828282"/>
</svg>
