<svg width="22" height="22" viewBox="0 0 22 22" fill="none" xmlns="http://www.w3.org/2000/svg">
<path d="M9.17663 0.404512C5.13591 1.14314 1.73243 4.17006 0.660699 7.96458C0.197247 9.65907 0.197247 12.0053 0.660699 13.6998C1.5876 16.9874 4.49866 19.9419 7.81524 20.9412C9.52422 21.4626 12.1022 21.4626 13.8112 20.9412C17.1277 19.9419 20.0388 16.9874 20.9657 13.6998C21.4291 12.0053 21.4291 9.65907 20.9657 7.96458C20.0388 4.67696 17.0843 1.69349 13.8112 0.737619C12.4932 0.346581 10.3063 0.187269 9.17663 0.404512ZM10.6684 0.983828C10.6684 1.07072 10.3787 3.09833 10.0166 5.50249C9.50974 8.92045 9.30698 9.93425 9.1187 10.1225C8.97387 10.2529 7.91662 11.1218 6.75799 12.0487C5.59936 12.9757 4.12211 14.1777 3.47038 14.7136C2.81865 15.2495 2.22485 15.6984 2.13795 15.7274C1.96416 15.7853 1.18208 13.7288 0.979323 12.657C0.660699 10.9336 0.86346 8.92045 1.54416 7.12457C2.50003 4.53213 4.96211 2.25832 7.74283 1.3459C9.06077 0.925896 10.6684 0.723135 10.6684 0.983828ZM13.7098 1.30245C18.185 2.66384 21.0671 6.86388 20.7629 11.5563C20.6905 12.7294 20.2126 14.5108 19.7491 15.4233L19.5609 15.7564L18.3153 14.786C17.6346 14.2357 15.9981 12.9612 14.6656 11.9474C13.1594 10.7887 12.2325 9.9777 12.1891 9.77494C12.1311 9.48528 10.958 1.07072 10.958 0.896931C10.958 0.737619 12.7539 1.01279 13.7098 1.30245ZM12.1167 12.9177C18.156 15.3653 19.3146 15.8433 19.3581 15.9591C19.445 16.1909 18.1126 17.8419 17.2581 18.5371C14.1877 21.0426 9.7125 21.535 6.17868 19.7392C5.23729 19.2612 3.8759 18.204 3.26762 17.4653C2.50003 16.524 2.21037 16.046 2.3552 15.9157C2.42761 15.8577 3.52831 15.3943 4.8028 14.8874C6.0773 14.3805 7.5111 13.7867 7.98904 13.5695C9.17663 13.0191 10.567 12.4543 10.7408 12.4398C10.8277 12.4253 11.436 12.6425 12.1167 12.9177Z" fill="#127384"/>
</svg>
