<svg width="14" height="13" viewBox="0 0 14 13" fill="none" xmlns="http://www.w3.org/2000/svg">
<path d="M12.621 2.49659L12.6307 2.48482L9.86036 0.24087L8.98771 1.31713L10.4193 2.47651C10.0641 2.69231 9.78215 3.00996 9.60997 3.38817C9.43779 3.76638 9.38338 4.18764 9.45381 4.59718C9.5577 5.2198 9.9864 5.75794 10.5412 6.05921C11.161 6.39649 11.7047 6.36533 12.1881 6.19357L12.1777 10.4751C12.1786 10.5898 12.1508 10.7028 12.0969 10.8041C12.0431 10.9053 11.9648 10.9916 11.8692 11.0549C11.7737 11.1183 11.6638 11.1569 11.5496 11.1672C11.4353 11.1774 11.3204 11.159 11.215 11.1136C11.1325 11.0784 11.0577 11.0273 10.9948 10.9633C10.9308 10.8992 10.88 10.823 10.8454 10.7393C10.8109 10.6555 10.7931 10.5657 10.7933 10.4751L10.8092 9.08992C10.8099 8.81731 10.7566 8.54726 10.6523 8.29537C10.5481 8.04348 10.3949 7.81474 10.2018 7.62235C10.0089 7.42899 9.77968 7.27557 9.52738 7.17087C9.27508 7.06617 9.00461 7.01225 8.73145 7.01219H8.03888V1.47158C8.03888 1.10421 7.89294 0.751895 7.63318 0.492128C7.37341 0.232361 7.02109 0.0864258 6.65372 0.0864258H1.80569C1.43832 0.0864258 1.086 0.232361 0.826234 0.492128C0.566468 0.751895 0.420532 1.10421 0.420532 1.47158V11.1677C0.420532 11.535 0.566468 11.8873 0.826234 12.1471C1.086 12.4069 1.43832 12.5528 1.80569 12.5528H6.65372C7.02109 12.5528 7.37341 12.4069 7.63318 12.1471C7.89294 11.8873 8.03888 11.535 8.03888 11.1677V8.39735H8.73145C8.82565 8.39735 8.91637 8.41605 9.00225 8.45137C9.16708 8.52353 9.29847 8.65541 9.37001 8.82051C9.40594 8.90577 9.42431 8.9974 9.42403 9.08992L9.40741 10.4751C9.40741 10.7563 9.46212 11.0284 9.57086 11.284C9.67544 11.5326 9.82573 11.755 10.0148 11.9426C10.207 12.1369 10.4361 12.291 10.6885 12.3957C10.941 12.5005 11.2118 12.5539 11.4851 12.5528C11.7663 12.5528 12.0378 12.4988 12.2941 12.3894C12.542 12.2855 12.765 12.1352 12.9527 11.9454C13.1466 11.7529 13.3004 11.5238 13.4051 11.2714C13.5098 11.019 13.5635 10.7483 13.5629 10.4751L13.5795 4.24189C13.5788 3.89395 13.4907 3.55177 13.3232 3.2468C13.1557 2.94183 12.9142 2.68385 12.621 2.49659ZM6.65372 3.54931H1.80569V1.47158H6.65372V3.54931ZM11.5018 4.93446C11.3181 4.93446 11.1419 4.8615 11.012 4.73161C10.8822 4.60173 10.8092 4.42557 10.8092 4.24189C10.8092 4.0582 10.8822 3.88204 11.012 3.75216C11.1419 3.62228 11.3181 3.54931 11.5018 3.54931C11.6854 3.54931 11.8616 3.62228 11.9915 3.75216C12.1214 3.88204 12.1943 4.0582 12.1943 4.24189C12.1943 4.42557 12.1214 4.60173 11.9915 4.73161C11.8616 4.8615 11.6854 4.93446 11.5018 4.93446Z" fill="#828282"/>
</svg>
